<svg xmlns="http://www.w3.org/2000/svg" width="36" height="36" viewBox="0 0 36 36">
  <g fill="none" stroke="#000" stroke-linecap="round" stroke-linejoin="round">
    <path stroke-width="2.6" d="M18 8.5v-3"/>
    <path stroke-width="2.6" d="M9.5 16.5H7.8c-1.2 0-2.2 1-2.2 2.2v1.8c0 1.2 1 2.2 2.2 2.2h1.7"/>
    <path stroke-width="2.6" d="M26.5 16.5h1.7c1.2 0 2.2 1 2.2 2.2v1.8c0 1.2-1 2.2-2.2 2.2h-1.7"/>
    <path stroke-width="3" d="M10.8 9.8h14.4c2.4 0 4.3 1.9 4.3 4.3v9.1c0 3-2.4 5.4-5.4 5.4H11.9c-3 0-5.4-2.4-5.4-5.4v-9.1c0-2.4 1.9-4.3 4.3-4.3Z"/>
    <path stroke-width="2.4" d="m14.4 16.2-2.1 2.1 2.1 2.1"/>
    <path stroke-width="2.4" d="m21.6 16.2 2.1 2.1-2.1 2.1"/>
    <path stroke-width="2.2" d="M15.5 24.1c1.5 1 3.5 1 5 0"/>
  </g>
</svg>
