<svg xmlns="http://www.w3.org/2000/svg" width="36" height="36" viewBox="0 0 36 36">
  <path fill="#000" fill-rule="evenodd" d="M18 3.5c-1.7 0-3.2.5-4.5 1.5a9 9 0 0 0-7.2 8.8v2.7c0 6.1 5 11 11.7 11s11.7-4.9 11.7-11v-2.7c0-4.3-3-7.9-7.2-8.8A7.3 7.3 0 0 0 18 3.5Zm-3.9 8.2a1.7 1.7 0 0 0-2.4.2l-2.4 2.8c-.5.6-.5 1.5 0 2.1l2.4 2.8a1.7 1.7 0 1 0 2.6-2.2L12.8 16l1.5-1.7a1.7 1.7 0 0 0-.2-2.6Zm10.2.2a1.7 1.7 0 1 0-2.6 2.2l1.5 1.7-1.5 1.7a1.7 1.7 0 1 0 2.6 2.2l2.4-2.8c.5-.6.5-1.5 0-2.1l-2.4-2.9Zm-8 7.9a1.5 1.5 0 0 0-1.6 2.6c1 .7 2.1 1 3.3 1s2.3-.3 3.3-1a1.5 1.5 0 1 0-1.6-2.6c-.5.3-1.1.5-1.7.5-.6 0-1.2-.2-1.7-.5Z" clip-rule="evenodd"/>
</svg>
